<mxfile host="app.diagrams.net" agent="Mozilla/5.0 (Windows NT 10.0; Win64; x64) AppleWebKit/537.36 (KHTML, like Gecko) Chrome/129.0.0.0 Safari/537.36 Edg/129.0.0.0" version="24.7.17">
  <diagram name="第 1 页" id="8xBv5dEvM6XGt-VpnxV8">
    <mxGraphModel dx="837" dy="432" grid="0" gridSize="10" guides="1" tooltips="1" connect="1" arrows="1" fold="1" page="1" pageScale="1" pageWidth="827" pageHeight="1169" math="0" shadow="0">
      <root>
        <mxCell id="0" />
        <mxCell id="1" parent="0" />
        <mxCell id="z9EmR4nH4kDNIWk3oJHA-51" value="Tree&amp;nbsp; Search &lt;i&gt;Key&lt;/i&gt;" style="rounded=1;whiteSpace=wrap;html=1;fillColor=#dae8fc;strokeColor=#6c8ebf;" vertex="1" parent="1">
          <mxGeometry x="250" y="390" width="130" height="60" as="geometry" />
        </mxCell>
        <mxCell id="z9EmR4nH4kDNIWk3oJHA-52" value="" style="endArrow=classic;html=1;rounded=0;" edge="1" parent="1">
          <mxGeometry width="50" height="50" relative="1" as="geometry">
            <mxPoint x="314.66" y="390" as="sourcePoint" />
            <mxPoint x="315" y="270" as="targetPoint" />
          </mxGeometry>
        </mxCell>
        <mxCell id="z9EmR4nH4kDNIWk3oJHA-55" value="&lt;i&gt;BPlusTree::&lt;/i&gt;&lt;i&gt;GetLeafWritePageGuard()&lt;/i&gt;" style="text;html=1;align=center;verticalAlign=middle;whiteSpace=wrap;rounded=0;fillColor=#d5e8d4;strokeColor=#82b366;" vertex="1" parent="1">
          <mxGeometry x="340" y="340" width="200" height="30" as="geometry" />
        </mxCell>
        <mxCell id="z9EmR4nH4kDNIWk3oJHA-56" value="&lt;i&gt;BPlusTree::GetLeafWritePageGuard()&lt;/i&gt;" style="text;html=1;align=center;verticalAlign=middle;whiteSpace=wrap;rounded=0;fillColor=#d5e8d4;strokeColor=#82b366;" vertex="1" parent="1">
          <mxGeometry x="90" y="340" width="200" height="30" as="geometry" />
        </mxCell>
        <mxCell id="z9EmR4nH4kDNIWk3oJHA-57" value="Read-Only" style="text;html=1;align=center;verticalAlign=middle;whiteSpace=wrap;rounded=0;fillColor=#ffe6cc;strokeColor=#d79b00;" vertex="1" parent="1">
          <mxGeometry x="570" y="405" width="60" height="30" as="geometry" />
        </mxCell>
        <mxCell id="z9EmR4nH4kDNIWk3oJHA-58" value="Maybe-Write" style="text;html=1;align=center;verticalAlign=middle;whiteSpace=wrap;rounded=0;fillColor=#ffe6cc;strokeColor=#d79b00;" vertex="1" parent="1">
          <mxGeometry x="10" y="410" width="80" height="30" as="geometry" />
        </mxCell>
        <mxCell id="z9EmR4nH4kDNIWk3oJHA-59" value="" style="curved=1;endArrow=classic;html=1;rounded=0;entryX=1;entryY=0.5;entryDx=0;entryDy=0;exitX=0.807;exitY=1.033;exitDx=0;exitDy=0;exitPerimeter=0;" edge="1" parent="1">
          <mxGeometry width="50" height="50" relative="1" as="geometry">
            <mxPoint x="470.0500000000002" y="370.99" as="sourcePoint" />
            <mxPoint x="400" y="419.9999999999999" as="targetPoint" />
            <Array as="points">
              <mxPoint x="470" y="370" />
              <mxPoint x="470" y="410" />
            </Array>
          </mxGeometry>
        </mxCell>
        <mxCell id="z9EmR4nH4kDNIWk3oJHA-61" value="" style="curved=1;endArrow=classic;html=1;rounded=0;" edge="1" parent="1">
          <mxGeometry width="50" height="50" relative="1" as="geometry">
            <mxPoint x="190" y="370" as="sourcePoint" />
            <mxPoint x="230" y="420" as="targetPoint" />
            <Array as="points">
              <mxPoint x="190" y="370" />
              <mxPoint x="190" y="410" />
            </Array>
          </mxGeometry>
        </mxCell>
        <mxCell id="z9EmR4nH4kDNIWk3oJHA-63" value="std::move()" style="text;html=1;align=center;verticalAlign=middle;whiteSpace=wrap;rounded=0;" vertex="1" parent="1">
          <mxGeometry x="140" y="405" width="80" height="30" as="geometry" />
        </mxCell>
        <mxCell id="z9EmR4nH4kDNIWk3oJHA-64" value="std::move()" style="text;html=1;align=center;verticalAlign=middle;whiteSpace=wrap;rounded=0;" vertex="1" parent="1">
          <mxGeometry x="440" y="405" width="80" height="30" as="geometry" />
        </mxCell>
        <mxCell id="z9EmR4nH4kDNIWk3oJHA-65" value="&lt;div&gt;从根节点开始&lt;/div&gt;逐渐迭代往下寻找" style="text;html=1;align=center;verticalAlign=middle;whiteSpace=wrap;rounded=0;fillColor=default;" vertex="1" parent="1">
          <mxGeometry x="258.75" y="310" width="112.5" height="30" as="geometry" />
        </mxCell>
        <mxCell id="z9EmR4nH4kDNIWk3oJHA-67" value="" style="curved=1;endArrow=classic;html=1;rounded=0;entryX=0.544;entryY=0.006;entryDx=0;entryDy=0;entryPerimeter=0;exitX=0.25;exitY=0;exitDx=0;exitDy=0;" edge="1" parent="1" source="z9EmR4nH4kDNIWk3oJHA-56" target="z9EmR4nH4kDNIWk3oJHA-56">
          <mxGeometry width="50" height="50" relative="1" as="geometry">
            <mxPoint x="170" y="330" as="sourcePoint" />
            <mxPoint x="210" y="330" as="targetPoint" />
            <Array as="points">
              <mxPoint x="170" y="280" />
            </Array>
          </mxGeometry>
        </mxCell>
        <mxCell id="z9EmR4nH4kDNIWk3oJHA-68" value="" style="curved=1;endArrow=classic;html=1;rounded=0;entryX=0.297;entryY=0.052;entryDx=0;entryDy=0;exitX=0.678;exitY=0.052;exitDx=0;exitDy=0;exitPerimeter=0;entryPerimeter=0;" edge="1" parent="1" target="z9EmR4nH4kDNIWk3oJHA-55">
          <mxGeometry width="50" height="50" relative="1" as="geometry">
            <mxPoint x="457.8000000000001" y="341.55999999999995" as="sourcePoint" />
            <mxPoint x="422.2" y="339.9999999999999" as="targetPoint" />
            <Array as="points">
              <mxPoint x="442.2" y="280" />
            </Array>
          </mxGeometry>
        </mxCell>
        <mxCell id="z9EmR4nH4kDNIWk3oJHA-69" value="InternalPage::GetPageId()" style="text;whiteSpace=wrap;fontStyle=2;fillColor=#fff2cc;strokeColor=#d6b656;" vertex="1" parent="1">
          <mxGeometry x="125" y="280" width="150" height="30" as="geometry" />
        </mxCell>
        <mxCell id="z9EmR4nH4kDNIWk3oJHA-70" value="InternalPage::GetPageId()" style="text;whiteSpace=wrap;fontStyle=2;fillColor=#fff2cc;strokeColor=#d6b656;" vertex="1" parent="1">
          <mxGeometry x="380" y="280" width="150" height="30" as="geometry" />
        </mxCell>
        <mxCell id="z9EmR4nH4kDNIWk3oJHA-71" value="LeafNode" style="rounded=1;whiteSpace=wrap;html=1;fillColor=#dae8fc;strokeColor=#6c8ebf;" vertex="1" parent="1">
          <mxGeometry x="275" y="240" width="80" height="30" as="geometry" />
        </mxCell>
        <mxCell id="z9EmR4nH4kDNIWk3oJHA-72" value="值域包含&lt;i&gt;Key&lt;/i&gt;的叶子节点" style="text;html=1;align=center;verticalAlign=middle;whiteSpace=wrap;rounded=0;fillColor=#dae8fc;strokeColor=#6c8ebf;" vertex="1" parent="1">
          <mxGeometry x="367.5" y="240" width="145" height="30" as="geometry" />
        </mxCell>
        <mxCell id="z9EmR4nH4kDNIWk3oJHA-73" value="" style="endArrow=classic;html=1;rounded=0;" edge="1" parent="1" target="z9EmR4nH4kDNIWk3oJHA-75">
          <mxGeometry width="50" height="50" relative="1" as="geometry">
            <mxPoint x="290" y="240" as="sourcePoint" />
            <mxPoint x="290" y="190" as="targetPoint" />
          </mxGeometry>
        </mxCell>
        <mxCell id="z9EmR4nH4kDNIWk3oJHA-74" value="" style="endArrow=classic;html=1;rounded=0;entryX=0.25;entryY=1;entryDx=0;entryDy=0;" edge="1" parent="1" target="z9EmR4nH4kDNIWk3oJHA-76">
          <mxGeometry width="50" height="50" relative="1" as="geometry">
            <mxPoint x="314.66" y="240" as="sourcePoint" />
            <mxPoint x="314.66" y="190" as="targetPoint" />
          </mxGeometry>
        </mxCell>
        <mxCell id="z9EmR4nH4kDNIWk3oJHA-75" value="&lt;i&gt;LeafPage::GetRID()&lt;/i&gt;" style="text;html=1;align=center;verticalAlign=middle;whiteSpace=wrap;rounded=0;fillColor=#fff2cc;strokeColor=#d6b656;" vertex="1" parent="1">
          <mxGeometry x="166" y="160" width="124" height="30" as="geometry" />
        </mxCell>
        <mxCell id="z9EmR4nH4kDNIWk3oJHA-76" value="&lt;i&gt;LeafPage::Insert2Leaf()&lt;/i&gt;" style="text;html=1;align=center;verticalAlign=middle;whiteSpace=wrap;rounded=0;fillColor=#fff2cc;strokeColor=#d6b656;" vertex="1" parent="1">
          <mxGeometry x="294" y="140" width="136" height="30" as="geometry" />
        </mxCell>
        <mxCell id="z9EmR4nH4kDNIWk3oJHA-77" value="......其他工作" style="text;html=1;align=center;verticalAlign=middle;whiteSpace=wrap;rounded=0;" vertex="1" parent="1">
          <mxGeometry x="340" y="200" width="90" height="30" as="geometry" />
        </mxCell>
      </root>
    </mxGraphModel>
  </diagram>
</mxfile>
